<svg xmlns="http://www.w3.org/2000/svg" width="24" height="24" viewBox="0 0 24 24" role="img" aria-label="AI BenchGauge menu bar icon (template)">
    <g transform="translate(-5.72 -2.27) scale(0.034602)">
    <path d="M280.2 523.65 A250 250 0 1 1 743.8 523.65" fill="none" stroke="#000000" stroke-width="78" stroke-linecap="butt"/>
    <line x1="505.43" y1="442.36" x2="592.75" y2="278.13" stroke="#000000" stroke-width="66" stroke-linecap="round"/>
    <circle cx="512" cy="430" r="58" fill="#000000"/>
    <path d="M352 684 L352 548 A28 28 0 0 1 380 520 L448 520 A28 28 0 0 1 476 548 L476 684 Z" fill="#000000"/>
    <path d="M548 684 L548 464 A28 28 0 0 1 576 436 L644 436 A28 28 0 0 1 672 464 L672 684 Z" fill="#000000"/>
    </g>
</svg>
